<svg width="124" height="173" viewBox="0 0 124 173" fill="none" xmlns="http://www.w3.org/2000/svg">
<path fill-rule="evenodd" clip-rule="evenodd" d="M0 5.00001C0 2.23858 2.23858 0 5 0H119C121.761 0 124 2.23858 124 5V167.222C124 169.984 121.761 172.222 119 172.222H5C2.23858 172.222 0 169.984 0 167.222V5.00001ZM49.6 83.5998C49.6 81.943 50.9431 80.5998 52.6 80.5998H70.7111C72.368 80.5998 73.7111 81.943 73.7111 83.5998V94.8221C73.7111 96.4789 72.368 97.8221 70.7111 97.8221H52.6C50.9431 97.8221 49.6 96.4789 49.6 94.8221V83.5998ZM90.4889 80.5998C88.832 80.5998 87.4889 81.943 87.4889 83.5998V94.8221C87.4889 96.4789 88.832 97.8221 90.4889 97.8221H108.6C110.257 97.8221 111.6 96.4789 111.6 94.8221V83.5998C111.6 81.943 110.257 80.5998 108.6 80.5998H90.4889ZM11.7111 83.6C11.7111 81.9432 13.0543 80.6 14.7111 80.6H32.8222C34.4791 80.6 35.8222 81.9432 35.8222 83.6V94.8222C35.8222 96.4791 34.4791 97.8222 32.8222 97.8222H14.7111C13.0543 97.8222 11.7111 96.4791 11.7111 94.8222V83.6ZM52.6 111.6C50.9431 111.6 49.6 112.943 49.6 114.6V125.822C49.6 127.479 50.9431 128.822 52.6 128.822H70.7111C72.368 128.822 73.7111 127.479 73.7111 125.822V114.6C73.7111 112.943 72.368 111.6 70.7111 111.6H52.6ZM87.4889 114.6C87.4889 112.943 88.832 111.6 90.4889 111.6H108.6C110.257 111.6 111.6 112.943 111.6 114.6V125.822C111.6 127.479 110.257 128.822 108.6 128.822H90.4889C88.832 128.822 87.4889 127.479 87.4889 125.822V114.6ZM14.7111 111.6C13.0543 111.6 11.7111 112.943 11.7111 114.6V125.822C11.7111 127.479 13.0543 128.822 14.7111 128.822H32.8222C34.4791 128.822 35.8222 127.479 35.8222 125.822V114.6C35.8222 112.943 34.4791 111.6 32.8222 111.6H14.7111ZM49.6 145.6C49.6 143.943 50.9431 142.6 52.6 142.6H70.7111C72.368 142.6 73.7111 143.943 73.7111 145.6V156.822C73.7111 158.479 72.368 159.822 70.7111 159.822H52.6C50.9431 159.822 49.6 158.479 49.6 156.822V145.6ZM90.4889 142.6C88.832 142.6 87.4889 143.943 87.4889 145.6V156.822C87.4889 158.479 88.832 159.822 90.4889 159.822H108.6C110.257 159.822 111.6 158.479 111.6 156.822V145.6C111.6 143.943 110.257 142.6 108.6 142.6H90.4889ZM11.7111 145.6C11.7111 143.943 13.0543 142.6 14.7111 142.6H32.8222C34.4791 142.6 35.8222 143.943 35.8222 145.6V156.822C35.8222 158.479 34.4791 159.822 32.8222 159.822H14.7111C13.0543 159.822 11.7111 158.479 11.7111 156.822V145.6ZM18.8444 15.8444C17.1876 15.8444 15.8444 17.1876 15.8444 18.8444V60.3778C15.8444 62.0346 17.1876 63.3778 18.8444 63.3778H104.467C106.124 63.3778 107.467 62.0346 107.467 60.3778V18.8444C107.467 17.1876 106.124 15.8444 104.467 15.8444H18.8444Z" fill="white"/>
</svg>
