<svg width="123" height="173" viewBox="0 0 123 173" fill="none" xmlns="http://www.w3.org/2000/svg">
<path fill-rule="evenodd" clip-rule="evenodd" d="M0 3C0 1.34314 1.34314 0 3 0H120C121.657 0 123 1.34315 123 3V170C123 171.657 121.657 173 120 173H3C1.34314 173 0 171.657 0 170V3ZM32 34C32 39.5228 27.5229 44 22 44C16.4771 44 12 39.5228 12 34C12 28.4771 16.4771 24 22 24C27.5229 24 32 28.4771 32 34ZM22 79C27.5229 79 32 74.5228 32 69C32 63.4772 27.5229 59 22 59C16.4771 59 12 63.4772 12 69C12 74.5228 16.4771 79 22 79ZM32 104C32 109.523 27.5229 114 22 114C16.4771 114 12 109.523 12 104C12 98.4772 16.4771 94 22 94C27.5229 94 32 98.4772 32 104ZM22 149C27.5229 149 32 144.523 32 139C32 133.477 27.5229 129 22 129C16.4771 129 12 133.477 12 139C12 144.523 16.4771 149 22 149ZM42 34C42 28.4771 46.4771 24 52 24H101C106.523 24 111 28.4771 111 34V69C111 74.5228 106.523 79 101 79H52C46.4771 79 42 74.5228 42 69V34ZM52 94C46.4771 94 42 98.4772 42 104V139C42 144.523 46.4771 149 52 149H101C106.523 149 111 144.523 111 139V104C111 98.4772 106.523 94 101 94H52Z" fill="white"/>
</svg>
